ISO-10303-21;
HEADER;
FILE_DESCRIPTION (( 'STEP AP214' ),
    '1' );
FILE_NAME ('poster.STEP',
    '2026-06-21T04:36:15',
    ( '' ),
    ( '' ),
    'SwSTEP 2.0',
    'SolidWorks 2025',
    '' );
FILE_SCHEMA (( 'AUTOMOTIVE_DESIGN' ));
ENDSEC;

DATA;
#1 =( LENGTH_UNIT ( ) NAMED_UNIT ( * ) SI_UNIT ( .MILLI., .METRE. ) );
#2 = AXIS2_PLACEMENT_3D ( 'NONE', #183, #119, #333 ) ;
#3 = CYLINDRICAL_SURFACE ( 'NONE', #436, 4.466306422632134954 ) ;
#4 = VERTEX_POINT ( 'NONE', #156 ) ;
#5 = EDGE_CURVE ( 'NONE', #426, #418, #371, .T. ) ;
#6 = CARTESIAN_POINT ( 'NONE',  ( 89.97777503361594142, 1.700000000000000178, -1.970050153450824126 ) ) ;
#7 = ORIENTED_EDGE ( 'NONE', *, *, #206, .F. ) ;
#8 = DIRECTION ( 'NONE',  ( 0.000000000000000000, 0.000000000000000000, 1.000000000000000000 ) ) ;
#9 = PLANE ( 'NONE',  #91 ) ;
#10 = DIRECTION ( 'NONE',  ( 0.000000000000000000, 0.000000000000000000, 1.000000000000000000 ) ) ;
#11 = DIRECTION ( 'NONE',  ( 0.000000000000000000, 0.000000000000000000, 1.000000000000000000 ) ) ;
#12 = CIRCLE ( 'NONE', #144, 0.7500000000000006661 ) ;
#13 = AXIS2_PLACEMENT_3D ( 'NONE', #324, #59, #357 ) ;
#14 = ADVANCED_FACE ( 'NONE', ( #254 ), #225, .T. ) ;
#15 = DIRECTION ( 'NONE',  ( 0.000000000000000000, 1.000000000000000000, 0.000000000000000000 ) ) ;
#16 = FACE_OUTER_BOUND ( 'NONE', #374, .T. ) ;
#17 = CYLINDRICAL_SURFACE ( 'NONE', #215, 0.7500000000000006661 ) ;
#18 = EDGE_LOOP ( 'NONE', ( #268, #198 ) ) ;
#19 = PRODUCT_CONTEXT ( 'NONE', #47, 'mechanical' ) ;
#20 = DIRECTION ( 'NONE',  ( -1.000000000000000000, 0.000000000000000000, 1.228762462150238523E-16 ) ) ;
#21 = ORIENTED_EDGE ( 'NONE', *, *, #388, .F. ) ;
#22 = AXIS2_PLACEMENT_3D ( 'NONE', #301, #489, #486 ) ;
#23 = PLANE ( 'NONE',  #376 ) ;
#24 = ADVANCED_FACE ( 'NONE', ( #113 ), #297, .F. ) ;
#25 = ORIENTED_EDGE ( 'NONE', *, *, #395, .T. ) ;
#26 = CARTESIAN_POINT ( 'NONE',  ( -89.97777503361594142, 3.000000000000000000, 1.999999999999988010 ) ) ;
#27 = ORIENTED_EDGE ( 'NONE', *, *, #39, .F. ) ;
#28 = DIRECTION ( 'NONE',  ( 0.000000000000000000, 0.000000000000000000, -1.000000000000000000 ) ) ;
#29 = ORIENTED_EDGE ( 'NONE', *, *, #50, .F. ) ;
#30 = CIRCLE ( 'NONE', #479, 0.7500000000000006661 ) ;
#31 = ADVANCED_FACE ( 'NONE', ( #259, #221, #121 ), #482, .F. ) ;
#32 = VECTOR ( 'NONE', #317, 1000.000000000000000 ) ;
#33 = AXIS2_PLACEMENT_3D ( 'NONE', #310, #234, #466 ) ;
#34 = CARTESIAN_POINT ( 'NONE',  ( 0.000000000000000000, 0.000000000000000000, 0.000000000000000000 ) ) ;
#35 = ORIENTED_EDGE ( 'NONE', *, *, #94, .T. ) ;
#36 = LINE ( 'NONE', #494, #230 ) ;
#37 = EDGE_LOOP ( 'NONE', ( #139, #27, #290, #370 ) ) ;
#38 = DIRECTION ( 'NONE',  ( 0.000000000000000000, 0.000000000000000000, 1.000000000000000000 ) ) ;
#39 = EDGE_CURVE ( 'NONE', #337, #285, #30, .T. ) ;
#40 = ORIENTED_EDGE ( 'NONE', *, *, #405, .F. ) ;
#41 = MANIFOLD_SOLID_BREP ( 'Cortar-Extruir2', #116 ) ;
#42 = VECTOR ( 'NONE', #414, 1000.000000000000000 ) ;
#43 = AXIS2_PLACEMENT_3D ( 'NONE', #46, #197, #107 ) ;
#44 =( GEOMETRIC_REPRESENTATION_CONTEXT ( 3 ) GLOBAL_UNCERTAINTY_ASSIGNED_CONTEXT ( ( #187 ) ) GLOBAL_UNIT_ASSIGNED_CONTEXT ( ( #98, #353, #397 ) ) REPRESENTATION_CONTEXT ( 'NONE', 'WORKASPACE' ) );
#45 = EDGE_LOOP ( 'NONE', ( #444, #7, #429, #362 ) ) ;
#46 = CARTESIAN_POINT ( 'NONE',  ( -89.97777503361594142, 3.000000000000000000, 1.999999999999988010 ) ) ;
#47 = APPLICATION_CONTEXT ( 'automotive_design' ) ;
#48 = DIRECTION ( 'NONE',  ( 0.000000000000000000, 0.000000000000000000, 1.000000000000000000 ) ) ;
#49 = CARTESIAN_POINT ( 'NONE',  ( -89.97777503361594142, 1.700000000000000178, 1.999999999999988010 ) ) ;
#50 = EDGE_CURVE ( 'NONE', #469, #471, #308, .T. ) ;
#51 = CARTESIAN_POINT ( 'NONE',  ( 120.0000000000000426, 0.000000000000000000, -7.000000000000011546 ) ) ;
#52 = SURFACE_STYLE_FILL_AREA ( #147 ) ;
#53 = CIRCLE ( 'NONE', #33, 3.970050153450812136 ) ;
#54 = ORIENTED_EDGE ( 'NONE', *, *, #170, .T. ) ;
#55 = DIRECTION ( 'NONE',  ( -0.000000000000000000, 1.000000000000000000, -0.000000000000000000 ) ) ;
#56 = DIRECTION ( 'NONE',  ( -1.192622389734054877E-16, 0.000000000000000000, -1.000000000000000000 ) ) ;
#57 = DIRECTION ( 'NONE',  ( -1.000000000000000000, 0.000000000000000000, 0.000000000000000000 ) ) ;
#58 = EDGE_CURVE ( 'NONE', #358, #396, #296, .T. ) ;
#59 = DIRECTION ( 'NONE',  ( -1.192622389734054877E-16, 0.000000000000000000, -1.000000000000000000 ) ) ;
#60 = VECTOR ( 'NONE', #384, 1000.000000000000000 ) ;
#61 = VECTOR ( 'NONE', #272, 1000.000000000000000 ) ;
#62 = ORIENTED_EDGE ( 'NONE', *, *, #84, .T. ) ;
#63 = AXIS2_PLACEMENT_3D ( 'NONE', #332, #79, #366 ) ;
#64 = CARTESIAN_POINT ( 'NONE',  ( -109.2500000000000426, 1.500000000000000000, 7.000000000000044409 ) ) ;
#65 = ORIENTED_EDGE ( 'NONE', *, *, #326, .F. ) ;
#66 = FACE_BOUND ( 'NONE', #321, .T. ) ;
#67 = ORIENTED_EDGE ( 'NONE', *, *, #199, .T. ) ;
#68 = EDGE_CURVE ( 'NONE', #331, #487, #87, .T. ) ;
#69 = CARTESIAN_POINT ( 'NONE',  ( 110.7500000000000426, 1.500000000000000000, 7.000000000000018652 ) ) ;
#70 = ORIENTED_EDGE ( 'NONE', *, *, #453, .T. ) ;
#71 = AXIS2_PLACEMENT_3D ( 'NONE', #408, #190, #157 ) ;
#72 = CYLINDRICAL_SURFACE ( 'NONE', #239, 0.7500000000000006661 ) ;
#73 = ORIENTED_EDGE ( 'NONE', *, *, #110, .F. ) ;
#74 = PLANE ( 'NONE',  #22 ) ;
#75 = VERTEX_POINT ( 'NONE', #309 ) ;
#76 = ADVANCED_FACE ( 'NONE', ( #422 ), #9, .F. ) ;
#77 = FACE_BOUND ( 'NONE', #452, .T. ) ;
#78 = ORIENTED_EDGE ( 'NONE', *, *, #311, .T. ) ;
#79 = DIRECTION ( 'NONE',  ( -1.192622389734054877E-16, 0.000000000000000000, -1.000000000000000000 ) ) ;
#80 = ORIENTED_EDGE ( 'NONE', *, *, #153, .F. ) ;
#81 = DIRECTION ( 'NONE',  ( 0.000000000000000000, 0.000000000000000000, -1.000000000000000000 ) ) ;
#82 = ORIENTED_EDGE ( 'NONE', *, *, #492, .T. ) ;
#83 = PRODUCT ( 'poster', 'poster', '', ( #19 ) ) ;
#84 = EDGE_CURVE ( 'NONE', #331, #323, #465, .T. ) ;
#85 = EDGE_LOOP ( 'NONE', ( #101, #355, #40, #460 ) ) ;
#86 = ORIENTED_EDGE ( 'NONE', *, *, #94, .F. ) ;
#87 = LINE ( 'NONE', #162, #447 ) ;
#88 = ADVANCED_FACE ( 'NONE', ( #192 ), #3, .F. ) ;
#89 = CARTESIAN_POINT ( 'NONE',  ( 89.97777503361594142, 3.000000000000000000, -1.970050153450824126 ) ) ;
#90 = ORIENTED_EDGE ( 'NONE', *, *, #365, .T. ) ;
#91 = AXIS2_PLACEMENT_3D ( 'NONE', #274, #57, #48 ) ;
#92 = DIRECTION ( 'NONE',  ( -1.192622389734054877E-16, -0.000000000000000000, -1.000000000000000000 ) ) ;
#93 = CARTESIAN_POINT ( 'NONE',  ( 89.97777503361594142, 1.700000000000000178, 5.970050153450800146 ) ) ;
#94 = EDGE_CURVE ( 'NONE', #323, #283, #303, .T. ) ;
#95 = CARTESIAN_POINT ( 'NONE',  ( -119.9999999999999432, 3.000000000000000000, -6.999999999999983125 ) ) ;
#96 = CARTESIAN_POINT ( 'NONE',  ( 120.0000000000000426, 0.000000000000000000, -7.000000000000011546 ) ) ;
#97 = ORIENTED_EDGE ( 'NONE', *, *, #206, .T. ) ;
#98 =( LENGTH_UNIT ( ) NAMED_UNIT ( * ) SI_UNIT ( .MILLI., .METRE. ) );
#99 = FACE_OUTER_BOUND ( 'NONE', #111, .T. ) ;
#100 = AXIS2_PLACEMENT_3D ( 'NONE', #372, #398, #451 ) ;
#101 = ORIENTED_EDGE ( 'NONE', *, *, #153, .T. ) ;
#102 = DIRECTION ( 'NONE',  ( -0.000000000000000000, -1.000000000000000000, -0.000000000000000000 ) ) ;
#103 = EDGE_LOOP ( 'NONE', ( #316, #122, #106, #65 ) ) ;
#104 = EDGE_CURVE ( 'NONE', #266, #181, #416, .T. ) ;
#105 = DIRECTION ( 'NONE',  ( -1.192622389734054877E-16, -0.000000000000000000, -1.000000000000000000 ) ) ;
#106 = ORIENTED_EDGE ( 'NONE', *, *, #58, .T. ) ;
#107 = DIRECTION ( 'NONE',  ( 0.000000000000000000, 0.000000000000000000, 1.000000000000000000 ) ) ;
#108 = ORIENTED_EDGE ( 'NONE', *, *, #356, .F. ) ;
#109 = CYLINDRICAL_SURFACE ( 'NONE', #480, 3.970050153450812136 ) ;
#110 = EDGE_CURVE ( 'NONE', #266, #217, #12, .T. ) ;
#111 = EDGE_LOOP ( 'NONE', ( #439, #73, #390, #172 ) ) ;
#112 = CARTESIAN_POINT ( 'NONE',  ( 109.2500000000000426, 1.500000000000000000, -7.000000000000009770 ) ) ;
#113 = FACE_OUTER_BOUND ( 'NONE', #37, .T. ) ;
#114 = DIRECTION ( 'NONE',  ( -1.192622389734054877E-16, 0.000000000000000000, -1.000000000000000000 ) ) ;
#115 = EDGE_LOOP ( 'NONE', ( #367, #477 ) ) ;
#116 = CLOSED_SHELL ( 'NONE', ( #348, #237, #88, #216, #247, #260, #338, #76, #31, #344, #273, #14, #484, #445, #194, #24 ) ) ;
#117 = VECTOR ( 'NONE', #133, 1000.000000000000000 ) ;
#118 = CARTESIAN_POINT ( 'NONE',  ( 109.2500000000000426, 1.500000000000000000, 7.000000000000018652 ) ) ;
#119 = DIRECTION ( 'NONE',  ( -1.192622389734054877E-16, -0.000000000000000000, -1.000000000000000000 ) ) ;
#120 = DIRECTION ( 'NONE',  ( -0.000000000000000000, -1.000000000000000000, -0.000000000000000000 ) ) ;
#121 = FACE_OUTER_BOUND ( 'NONE', #45, .T. ) ;
#122 = ORIENTED_EDGE ( 'NONE', *, *, #136, .T. ) ;
#123 = VECTOR ( 'NONE', #420, 1000.000000000000000 ) ;
#124 = VECTOR ( 'NONE', #382, 1000.000000000000000 ) ;
#125 = EDGE_CURVE ( 'NONE', #401, #469, #410, .T. ) ;
#126 = DIRECTION ( 'NONE',  ( -1.192622389734054877E-16, 0.000000000000000000, -1.000000000000000000 ) ) ;
#127 = DIRECTION ( 'NONE',  ( 0.000000000000000000, 0.000000000000000000, 1.000000000000000000 ) ) ;
#128 = VECTOR ( 'NONE', #152, 1000.000000000000000 ) ;
#129 = CIRCLE ( 'NONE', #456, 0.7500000000000006661 ) ;
#130 = CARTESIAN_POINT ( 'NONE',  ( -89.97777503361594142, 1.700000000000000178, 1.999999999999988010 ) ) ;
#131 = CARTESIAN_POINT ( 'NONE',  ( 110.0000000000000426, 1.500000000000000000, 7.000000000000018652 ) ) ;
#132 = CARTESIAN_POINT ( 'NONE',  ( -89.97777503361594142, 1.700000000000000178, -2.466306422632146944 ) ) ;
#133 = DIRECTION ( 'NONE',  ( -1.192622389734054877E-16, -0.000000000000000000, -1.000000000000000000 ) ) ;
#134 = EDGE_LOOP ( 'NONE', ( #241, #175, #491, #214 ) ) ;
#135 = CARTESIAN_POINT ( 'NONE',  ( -109.2500000000000426, 1.500000000000000000, -6.999999999999984013 ) ) ;
#136 = EDGE_CURVE ( 'NONE', #285, #358, #347, .T. ) ;
#137 = ORIENTED_EDGE ( 'NONE', *, *, #191, .T. ) ;
#138 = CARTESIAN_POINT ( 'NONE',  ( -89.97777503361594142, 3.000000000000000000, 6.466306422632122519 ) ) ;
#139 = ORIENTED_EDGE ( 'NONE', *, *, #136, .F. ) ;
#140 = LINE ( 'NONE', #284, #319 ) ;
#141 = ORIENTED_EDGE ( 'NONE', *, *, #255, .F. ) ;
#142 = LINE ( 'NONE', #171, #145 ) ;
#143 = VERTEX_POINT ( 'NONE', #95 ) ;
#144 = AXIS2_PLACEMENT_3D ( 'NONE', #412, #161, #313 ) ;
#145 = VECTOR ( 'NONE', #20, 1000.000000000000000 ) ;
#146 = CARTESIAN_POINT ( 'NONE',  ( 89.97777503361594142, 3.000000000000000000, 1.999999999999988010 ) ) ;
#147 = FILL_AREA_STYLE ('',( #294 ) ) ;
#148 = CARTESIAN_POINT ( 'NONE',  ( 120.0000000000000426, 3.000000000000000000, -7.000000000000011546 ) ) ;
#149 = CARTESIAN_POINT ( 'NONE',  ( 110.0000000000000426, 1.500000000000000000, 7.000000000000018652 ) ) ;
#150 = DIRECTION ( 'NONE',  ( 0.000000000000000000, 0.000000000000000000, 1.000000000000000000 ) ) ;
#151 = PRODUCT_DEFINITION_CONTEXT ( 'detailed design', #242, 'design' ) ;
#152 = DIRECTION ( 'NONE',  ( 0.000000000000000000, 0.000000000000000000, -1.000000000000000000 ) ) ;
#153 = EDGE_CURVE ( 'NONE', #418, #75, #235, .T. ) ;
#154 = VECTOR ( 'NONE', #213, 1000.000000000000000 ) ;
#155 = LINE ( 'NONE', #186, #154 ) ;
#156 = CARTESIAN_POINT ( 'NONE',  ( -89.97777503361594142, 3.000000000000000000, -2.466306422632146944 ) ) ;
#157 = DIRECTION ( 'NONE',  ( 0.000000000000000000, 0.000000000000000000, -1.000000000000000000 ) ) ;
#158 = EDGE_CURVE ( 'NONE', #285, #337, #304, .T. ) ;
#159 = DIRECTION ( 'NONE',  ( 0.000000000000000000, 0.000000000000000000, -1.000000000000000000 ) ) ;
#160 = AXIS2_PLACEMENT_3D ( 'NONE', #226, #56, #383 ) ;
#161 = DIRECTION ( 'NONE',  ( -1.192622389734054877E-16, 0.000000000000000000, -1.000000000000000000 ) ) ;
#162 = CARTESIAN_POINT ( 'NONE',  ( 120.0000000000000426, 3.000000000000000000, 6.999999999999987566 ) ) ;
#163 = CARTESIAN_POINT ( 'NONE',  ( 120.0000000000000426, 3.000000000000000000, -7.000000000000011546 ) ) ;
#164 = SURFACE_SIDE_STYLE ('',( #52 ) ) ;
#165 = EDGE_CURVE ( 'NONE', #4, #257, #427, .T. ) ;
#166 = AXIS2_PLACEMENT_3D ( 'NONE', #468, #391, #315 ) ;
#167 = CARTESIAN_POINT ( 'NONE',  ( 110.7500000000000426, 1.500000000000000000, 7.000000000000018652 ) ) ;
#168 = CARTESIAN_POINT ( 'NONE',  ( -109.2500000000000426, 1.500000000000000000, 7.000000000000044409 ) ) ;
#169 = EDGE_LOOP ( 'NONE', ( #108, #246, #82, #407 ) ) ;
#170 = EDGE_CURVE ( 'NONE', #426, #283, #142, .T. ) ;
#171 = CARTESIAN_POINT ( 'NONE',  ( 120.0000000000000426, 0.000000000000000000, 6.999999999999987566 ) ) ;
#172 = ORIENTED_EDGE ( 'NONE', *, *, #425, .T. ) ;
#173 = DIRECTION ( 'NONE',  ( -1.000000000000000000, 0.000000000000000000, 0.000000000000000000 ) ) ;
#174 = AXIS2_PLACEMENT_3D ( 'NONE', #262, #126, #457 ) ;
#175 = ORIENTED_EDGE ( 'NONE', *, *, #433, .F. ) ;
#176 = CARTESIAN_POINT ( 'NONE',  ( -110.0000000000000426, 1.500000000000000000, 7.000000000000044409 ) ) ;
#177 = ORIENTED_EDGE ( 'NONE', *, *, #409, .F. ) ;
#178 = DIRECTION ( 'NONE',  ( -0.000000000000000000, 1.000000000000000000, -0.000000000000000000 ) ) ;
#179 = ORIENTED_EDGE ( 'NONE', *, *, #378, .T. ) ;
#180 = DIRECTION ( 'NONE',  ( 0.000000000000000000, -1.000000000000000000, -0.000000000000000000 ) ) ;
#181 = VERTEX_POINT ( 'NONE', #470 ) ;
#182 = LINE ( 'NONE', #334, #419 ) ;
#183 = CARTESIAN_POINT ( 'NONE',  ( 110.0000000000000426, 1.500000000000000000, 7.000000000000018652 ) ) ;
#184 = FACE_OUTER_BOUND ( 'NONE', #249, .T. ) ;
#185 = CARTESIAN_POINT ( 'NONE',  ( 120.0000000000000426, 0.000000000000000000, 6.999999999999987566 ) ) ;
#186 = CARTESIAN_POINT ( 'NONE',  ( 120.0000000000000426, 3.000000000000000000, -7.000000000000011546 ) ) ;
#187 = UNCERTAINTY_MEASURE_WITH_UNIT (LENGTH_MEASURE( 1.000000000000000082E-05 ), #98, 'distance_accuracy_value', 'NONE');
#188 = ORIENTED_EDGE ( 'NONE', *, *, #492, .F. ) ;
#189 = VECTOR ( 'NONE', #81, 1000.000000000000000 ) ;
#190 = DIRECTION ( 'NONE',  ( 0.000000000000000000, -1.000000000000000000, -0.000000000000000000 ) ) ;
#191 = EDGE_CURVE ( 'NONE', #331, #426, #354, .T. ) ;
#192 = FACE_OUTER_BOUND ( 'NONE', #244, .T. ) ;
#193 = AXIS2_PLACEMENT_3D ( 'NONE', #26, #205, #361 ) ;
#194 = ADVANCED_FACE ( 'NONE', ( #99 ), #17, .F. ) ;
#195 = DIRECTION ( 'NONE',  ( 0.000000000000000000, 1.000000000000000000, 0.000000000000000000 ) ) ;
#196 = AXIS2_PLACEMENT_3D ( 'NONE', #381, #195, #11 ) ;
#197 = DIRECTION ( 'NONE',  ( 0.000000000000000000, 1.000000000000000000, 0.000000000000000000 ) ) ;
#198 = ORIENTED_EDGE ( 'NONE', *, *, #356, .T. ) ;
#199 = EDGE_CURVE ( 'NONE', #325, #318, #312, .T. ) ;
#200 = FACE_OUTER_BOUND ( 'NONE', #375, .T. ) ;
#201 = ORIENTED_EDGE ( 'NONE', *, *, #104, .F. ) ;
#202 = DIRECTION ( 'NONE',  ( 1.000000000000000000, 0.000000000000000000, -1.192622389734054877E-16 ) ) ;
#203 = ORIENTED_EDGE ( 'NONE', *, *, #378, .F. ) ;
#204 = DIRECTION ( 'NONE',  ( 1.000000000000000000, 0.000000000000000000, 0.000000000000000000 ) ) ;
#205 = DIRECTION ( 'NONE',  ( 0.000000000000000000, 1.000000000000000000, 0.000000000000000000 ) ) ;
#206 = EDGE_CURVE ( 'NONE', #323, #143, #441, .T. ) ;
#207 = CIRCLE ( 'NONE', #160, 0.7500000000000006661 ) ;
#208 = ORIENTED_EDGE ( 'NONE', *, *, #5, .T. ) ;
#209 = CARTESIAN_POINT ( 'NONE',  ( -119.9999999999999432, 3.000000000000000000, 7.000000000000017764 ) ) ;
#210 = VERTEX_POINT ( 'NONE', #135 ) ;
#211 = CARTESIAN_POINT ( 'NONE',  ( 89.97777503361594142, 1.700000000000000178, 1.999999999999988010 ) ) ;
#212 = EDGE_LOOP ( 'NONE', ( #208, #21, #495, #137 ) ) ;
#213 = DIRECTION ( 'NONE',  ( -0.000000000000000000, -1.000000000000000000, -0.000000000000000000 ) ) ;
#214 = ORIENTED_EDGE ( 'NONE', *, *, #289, .T. ) ;
#215 = AXIS2_PLACEMENT_3D ( 'NONE', #176, #105, #173 ) ;
#216 = ADVANCED_FACE ( 'NONE', ( #386 ), #109, .F. ) ;
#217 = VERTEX_POINT ( 'NONE', #64 ) ;
#218 = FACE_OUTER_BOUND ( 'NONE', #103, .T. ) ;
#219 = ORIENTED_EDGE ( 'NONE', *, *, #58, .F. ) ;
#220 = UNCERTAINTY_MEASURE_WITH_UNIT (LENGTH_MEASURE( 1.000000000000000082E-05 ), #1, 'distance_accuracy_value', 'NONE');
#221 = FACE_BOUND ( 'NONE', #473, .T. ) ;
#222 = VECTOR ( 'NONE', #92, 1000.000000000000000 ) ;
#223 = CARTESIAN_POINT ( 'NONE',  ( -89.97777503361594142, 1.700000000000000178, 1.999999999999988010 ) ) ;
#224 = AXIS2_PLACEMENT_3D ( 'NONE', #231, #15, #10 ) ;
#225 = PLANE ( 'NONE',  #238 ) ;
#226 = CARTESIAN_POINT ( 'NONE',  ( -110.0000000000000426, 1.500000000000000000, -6.999999999999984013 ) ) ;
#227 =( NAMED_UNIT ( * ) PLANE_ANGLE_UNIT ( ) SI_UNIT ( $, .RADIAN. ) );
#228 = CARTESIAN_POINT ( 'NONE',  ( 89.97777503361594142, 1.700000000000000178, -1.970050153450824126 ) ) ;
#229 = PRODUCT_RELATED_PRODUCT_CATEGORY ( 'part', '', ( #83 ) ) ;
#230 = VECTOR ( 'NONE', #440, 1000.000000000000000 ) ;
#231 = CARTESIAN_POINT ( 'NONE',  ( -89.97777503361594142, 1.700000000000000178, 1.999999999999988010 ) ) ;
#232 = DIRECTION ( 'NONE',  ( -0.000000000000000000, 1.000000000000000000, -0.000000000000000000 ) ) ;
#233 = EDGE_LOOP ( 'NONE', ( #475, #90 ) ) ;
#234 = DIRECTION ( 'NONE',  ( 0.000000000000000000, 1.000000000000000000, 0.000000000000000000 ) ) ;
#235 = LINE ( 'NONE', #96, #60 ) ;
#236 = DIRECTION ( 'NONE',  ( -1.000000000000000000, 0.000000000000000000, 0.000000000000000000 ) ) ;
#237 = ADVANCED_FACE ( 'NONE', ( #200 ), #72, .F. ) ;
#238 = AXIS2_PLACEMENT_3D ( 'NONE', #450, #261, #300 ) ;
#239 = AXIS2_PLACEMENT_3D ( 'NONE', #428, #434, #476 ) ;
#240 = DIRECTION ( 'NONE',  ( 0.000000000000000000, 0.000000000000000000, 1.000000000000000000 ) ) ;
#241 = ORIENTED_EDGE ( 'NONE', *, *, #453, .F. ) ;
#242 = APPLICATION_CONTEXT ( 'automotive_design' ) ;
#243 = CARTESIAN_POINT ( 'NONE',  ( 89.97777503361594142, 1.700000000000000178, 1.999999999999988010 ) ) ;
#244 = EDGE_LOOP ( 'NONE', ( #377, #70, #413, #435 ) ) ;
#245 = FACE_OUTER_BOUND ( 'NONE', #287, .T. ) ;
#246 = ORIENTED_EDGE ( 'NONE', *, *, #50, .T. ) ;
#247 = ADVANCED_FACE ( 'NONE', ( #389, #66, #322 ), #474, .F. ) ;
#248 = DIRECTION ( 'NONE',  ( 0.000000000000000000, 0.000000000000000000, 1.000000000000000000 ) ) ;
#249 = EDGE_LOOP ( 'NONE', ( #387, #335, #62, #35 ) ) ;
#250 = FACE_BOUND ( 'NONE', #233, .T. ) ;
#251 = ORIENTED_EDGE ( 'NONE', *, *, #5, .F. ) ;
#252 = CARTESIAN_POINT ( 'NONE',  ( 0.000000000000000000, 0.000000000000000000, 0.000000000000000000 ) ) ;
#253 = LINE ( 'NONE', #148, #339 ) ;
#254 = FACE_OUTER_BOUND ( 'NONE', #18, .T. ) ;
#255 = EDGE_CURVE ( 'NONE', #396, #358, #264, .T. ) ;
#256 = DIRECTION ( 'NONE',  ( 1.000000000000000000, 0.000000000000000000, 0.000000000000000000 ) ) ;
#257 = VERTEX_POINT ( 'NONE', #138 ) ;
#258 = DIRECTION ( 'NONE',  ( 0.000000000000000000, 1.000000000000000000, 0.000000000000000000 ) ) ;
#259 = FACE_BOUND ( 'NONE', #115, .T. ) ;
#260 = ADVANCED_FACE ( 'NONE', ( #16 ), #23, .T. ) ;
#261 = DIRECTION ( 'NONE',  ( 0.000000000000000000, 1.000000000000000000, 0.000000000000000000 ) ) ;
#262 = CARTESIAN_POINT ( 'NONE',  ( 110.0000000000000426, 1.500000000000000000, -7.000000000000009770 ) ) ;
#263 = PRESENTATION_LAYER_ASSIGNMENT (  '', '', ( #380 ) ) ;
#264 = CIRCLE ( 'NONE', #13, 0.7500000000000006661 ) ;
#265 = CARTESIAN_POINT ( 'NONE',  ( -119.9999999999999432, 3.000000000000000000, 7.000000000000017764 ) ) ;
#266 = VERTEX_POINT ( 'NONE', #431 ) ;
#267 = CARTESIAN_POINT ( 'NONE',  ( 120.0000000000000426, 0.000000000000000000, 6.999999999999987566 ) ) ;
#268 = ORIENTED_EDGE ( 'NONE', *, *, #125, .T. ) ;
#269 = PRODUCT_DEFINITION ( 'UNKNOWN', '', #278, #151 ) ;
#270 = DIRECTION ( 'NONE',  ( -0.000000000000000000, -1.000000000000000000, -0.000000000000000000 ) ) ;
#271 = ORIENTED_EDGE ( 'NONE', *, *, #467, .T. ) ;
#272 = DIRECTION ( 'NONE',  ( -1.192622389734054877E-16, -0.000000000000000000, -1.000000000000000000 ) ) ;
#273 = ADVANCED_FACE ( 'NONE', ( #245 ), #385, .F. ) ;
#274 = CARTESIAN_POINT ( 'NONE',  ( 120.0000000000000426, 3.000000000000000000, 6.999999999999987566 ) ) ;
#275 = CARTESIAN_POINT ( 'NONE',  ( -89.97777503361594142, 1.700000000000000178, 1.999999999999988010 ) ) ;
#276 = ORIENTED_EDGE ( 'NONE', *, *, #365, .F. ) ;
#277 = AXIS2_PLACEMENT_3D ( 'NONE', #275, #282, #240 ) ;
#278 = PRODUCT_DEFINITION_FORMATION_WITH_SPECIFIED_SOURCE ( 'ANY', '', #83, .NOT_KNOWN. ) ;
#279 = DIRECTION ( 'NONE',  ( -0.000000000000000000, 1.000000000000000000, -0.000000000000000000 ) ) ;
#280 = ORIENTED_EDGE ( 'NONE', *, *, #409, .T. ) ;
#281 = SHAPE_DEFINITION_REPRESENTATION ( #442, #291 ) ;
#282 = DIRECTION ( 'NONE',  ( 0.000000000000000000, 1.000000000000000000, 0.000000000000000000 ) ) ;
#283 = VERTEX_POINT ( 'NONE', #394 ) ;
#284 = CARTESIAN_POINT ( 'NONE',  ( -89.97777503361594142, 1.700000000000000178, 6.466306422632122519 ) ) ;
#285 = VERTEX_POINT ( 'NONE', #69 ) ;
#286 = DIRECTION ( 'NONE',  ( 0.000000000000000000, 0.000000000000000000, 1.000000000000000000 ) ) ;
#287 = EDGE_LOOP ( 'NONE', ( #29, #346, #271, #179 ) ) ;
#288 = PLANE ( 'NONE',  #298 ) ;
#289 = EDGE_CURVE ( 'NONE', #257, #4, #449, .T. ) ;
#290 = ORIENTED_EDGE ( 'NONE', *, *, #326, .T. ) ;
#291 = ADVANCED_BREP_SHAPE_REPRESENTATION ( 'poster', ( #41, #403 ), #44 ) ;
#292 = DIRECTION ( 'NONE',  ( 0.000000000000000000, -0.000000000000000000, 1.000000000000000000 ) ) ;
#293 = CARTESIAN_POINT ( 'NONE',  ( -110.0000000000000426, 1.500000000000000000, -6.999999999999984013 ) ) ;
#294 = FILL_AREA_STYLE_COLOUR ( '', #402 ) ;
#295 = CARTESIAN_POINT ( 'NONE',  ( -119.9999999999999432, 0.000000000000000000, 7.000000000000017764 ) ) ;
#296 = CIRCLE ( 'NONE', #174, 0.7500000000000006661 ) ;
#297 = CYLINDRICAL_SURFACE ( 'NONE', #2, 0.7500000000000006661 ) ;
#298 = AXIS2_PLACEMENT_3D ( 'NONE', #34, #180, #28 ) ;
#299 = CARTESIAN_POINT ( 'NONE',  ( 120.0000000000000426, 3.000000000000000000, 6.999999999999987566 ) ) ;
#300 = DIRECTION ( 'NONE',  ( 0.000000000000000000, -0.000000000000000000, 1.000000000000000000 ) ) ;
#301 = CARTESIAN_POINT ( 'NONE',  ( 120.0000000000000426, 3.000000000000000000, 6.999999999999987566 ) ) ;
#302 = DIRECTION ( 'NONE',  ( -1.192622389734054877E-16, 0.000000000000000000, -1.000000000000000000 ) ) ;
#303 = LINE ( 'NONE', #265, #488 ) ;
#304 = CIRCLE ( 'NONE', #327, 0.7500000000000006661 ) ;
#305 = AXIS2_PLACEMENT_3D ( 'NONE', #438, #363, #202 ) ;
#306 = CARTESIAN_POINT ( 'NONE',  ( 89.97777503361594142, 3.000000000000000000, 5.970050153450800146 ) ) ;
#307 = EDGE_CURVE ( 'NONE', #318, #257, #140, .T. ) ;
#308 = LINE ( 'NONE', #6, #42 ) ;
#309 = CARTESIAN_POINT ( 'NONE',  ( -119.9999999999999432, 0.000000000000000000, -6.999999999999983125 ) ) ;
#310 = CARTESIAN_POINT ( 'NONE',  ( 89.97777503361594142, 3.000000000000000000, 1.999999999999988010 ) ) ;
#311 = EDGE_CURVE ( 'NONE', #217, #210, #352, .T. ) ;
#312 = CIRCLE ( 'NONE', #277, 4.466306422632134954 ) ;
#313 = DIRECTION ( 'NONE',  ( 1.000000000000000000, 0.000000000000000000, 0.000000000000000000 ) ) ;
#314 = FACE_OUTER_BOUND ( 'NONE', #134, .T. ) ;
#315 = DIRECTION ( 'NONE',  ( 0.000000000000000000, 0.000000000000000000, 1.000000000000000000 ) ) ;
#316 = ORIENTED_EDGE ( 'NONE', *, *, #158, .F. ) ;
#317 = DIRECTION ( 'NONE',  ( 0.000000000000000000, 0.000000000000000000, -1.000000000000000000 ) ) ;
#318 = VERTEX_POINT ( 'NONE', #443 ) ;
#319 = VECTOR ( 'NONE', #178, 1000.000000000000000 ) ;
#320 = CARTESIAN_POINT ( 'NONE',  ( -119.9999999999999432, 3.000000000000000000, 7.000000000000017764 ) ) ;
#321 = EDGE_LOOP ( 'NONE', ( #415, #177 ) ) ;
#322 = FACE_OUTER_BOUND ( 'NONE', #85, .T. ) ;
#323 = VERTEX_POINT ( 'NONE', #340 ) ;
#324 = CARTESIAN_POINT ( 'NONE',  ( 110.0000000000000426, 1.500000000000000000, -7.000000000000009770 ) ) ;
#325 = VERTEX_POINT ( 'NONE', #448 ) ;
#326 = EDGE_CURVE ( 'NONE', #337, #396, #36, .T. ) ;
#327 = AXIS2_PLACEMENT_3D ( 'NONE', #131, #423, #236 ) ;
#328 = CARTESIAN_POINT ( 'NONE',  ( 110.7500000000000426, 1.500000000000000000, -7.000000000000009770 ) ) ;
#329 = CIRCLE ( 'NONE', #437, 3.970050153450812136 ) ;
#330 = CIRCLE ( 'NONE', #360, 3.970050153450812136 ) ;
#331 = VERTEX_POINT ( 'NONE', #299 ) ;
#332 = CARTESIAN_POINT ( 'NONE',  ( -110.0000000000000426, 1.500000000000000000, 7.000000000000044409 ) ) ;
#333 = DIRECTION ( 'NONE',  ( -1.000000000000000000, 0.000000000000000000, 0.000000000000000000 ) ) ;
#334 = CARTESIAN_POINT ( 'NONE',  ( -119.9999999999999432, 3.000000000000000000, -6.999999999999983125 ) ) ;
#335 = ORIENTED_EDGE ( 'NONE', *, *, #191, .F. ) ;
#336 = CYLINDRICAL_SURFACE ( 'NONE', #100, 0.7500000000000006661 ) ;
#337 = VERTEX_POINT ( 'NONE', #118 ) ;
#338 = ADVANCED_FACE ( 'NONE', ( #77, #250, #184 ), #74, .T. ) ;
#339 = VECTOR ( 'NONE', #368, 1000.000000000000000 ) ;
#340 = CARTESIAN_POINT ( 'NONE',  ( -119.9999999999999432, 3.000000000000000000, 7.000000000000017764 ) ) ;
#341 = EDGE_LOOP ( 'NONE', ( #392, #67 ) ) ;
#342 = PRESENTATION_STYLE_ASSIGNMENT (( #379 ) ) ;
#343 = DIRECTION ( 'NONE',  ( 0.000000000000000000, 1.000000000000000000, 0.000000000000000000 ) ) ;
#344 = ADVANCED_FACE ( 'NONE', ( #454 ), #288, .T. ) ;
#345 = CARTESIAN_POINT ( 'NONE',  ( -110.7500000000000426, 1.500000000000000000, 7.000000000000044409 ) ) ;
#346 = ORIENTED_EDGE ( 'NONE', *, *, #125, .F. ) ;
#347 = LINE ( 'NONE', #167, #61 ) ;
#348 = ADVANCED_FACE ( 'NONE', ( #218 ), #336, .F. ) ;
#349 = CYLINDRICAL_SURFACE ( 'NONE', #421, 4.466306422632134954 ) ;
#350 = DIRECTION ( 'NONE',  ( -1.000000000000000000, 0.000000000000000000, 1.228762462150238523E-16 ) ) ;
#351 =( GEOMETRIC_REPRESENTATION_CONTEXT ( 3 ) GLOBAL_UNCERTAINTY_ASSIGNED_CONTEXT ( ( #220 ) ) GLOBAL_UNIT_ASSIGNED_CONTEXT ( ( #1, #227, #463 ) ) REPRESENTATION_CONTEXT ( 'NONE', 'WORKASPACE' ) );
#352 = LINE ( 'NONE', #168, #117 ) ;
#353 =( NAMED_UNIT ( * ) PLANE_ANGLE_UNIT ( ) SI_UNIT ( $, .RADIAN. ) );
#354 = LINE ( 'NONE', #424, #464 ) ;
#355 = ORIENTED_EDGE ( 'NONE', *, *, #395, .F. ) ;
#356 = EDGE_CURVE ( 'NONE', #469, #401, #329, .T. ) ;
#357 = DIRECTION ( 'NONE',  ( -1.000000000000000000, 0.000000000000000000, 0.000000000000000000 ) ) ;
#358 = VERTEX_POINT ( 'NONE', #328 ) ;
#359 = MECHANICAL_DESIGN_GEOMETRIC_PRESENTATION_REPRESENTATION (  '', ( #380 ), #351 ) ;
#360 = AXIS2_PLACEMENT_3D ( 'NONE', #146, #406, #38 ) ;
#361 = DIRECTION ( 'NONE',  ( 0.000000000000000000, 0.000000000000000000, 1.000000000000000000 ) ) ;
#362 = ORIENTED_EDGE ( 'NONE', *, *, #68, .T. ) ;
#363 = DIRECTION ( 'NONE',  ( 1.192622389734054877E-16, -0.000000000000000000, 1.000000000000000000 ) ) ;
#364 = ORIENTED_EDGE ( 'NONE', *, *, #39, .T. ) ;
#365 = EDGE_CURVE ( 'NONE', #217, #266, #369, .T. ) ;
#366 = DIRECTION ( 'NONE',  ( 1.000000000000000000, 0.000000000000000000, 0.000000000000000000 ) ) ;
#367 = ORIENTED_EDGE ( 'NONE', *, *, #289, .F. ) ;
#368 = DIRECTION ( 'NONE',  ( -1.000000000000000000, 0.000000000000000000, 1.192622389734054877E-16 ) ) ;
#369 = CIRCLE ( 'NONE', #63, 0.7500000000000006661 ) ;
#370 = ORIENTED_EDGE ( 'NONE', *, *, #255, .T. ) ;
#371 = LINE ( 'NONE', #185, #128 ) ;
#372 = CARTESIAN_POINT ( 'NONE',  ( 110.0000000000000426, 1.500000000000000000, 7.000000000000018652 ) ) ;
#373 = EDGE_CURVE ( 'NONE', #283, #75, #481, .T. ) ;
#374 = EDGE_LOOP ( 'NONE', ( #411, #86, #97, #25 ) ) ;
#375 = EDGE_LOOP ( 'NONE', ( #276, #78, #280, #201 ) ) ;
#376 = AXIS2_PLACEMENT_3D ( 'NONE', #209, #472, #286 ) ;
#377 = ORIENTED_EDGE ( 'NONE', *, *, #199, .F. ) ;
#378 = EDGE_CURVE ( 'NONE', #458, #471, #330, .T. ) ;
#379 = SURFACE_STYLE_USAGE ( .BOTH. , #164 ) ;
#380 = STYLED_ITEM ( 'NONE', ( #342 ), #41 ) ;
#381 = CARTESIAN_POINT ( 'NONE',  ( 89.97777503361594142, 1.700000000000000178, 1.999999999999988010 ) ) ;
#382 = DIRECTION ( 'NONE',  ( -0.000000000000000000, 1.000000000000000000, -0.000000000000000000 ) ) ;
#383 = DIRECTION ( 'NONE',  ( 1.000000000000000000, 0.000000000000000000, 0.000000000000000000 ) ) ;
#384 = DIRECTION ( 'NONE',  ( -1.000000000000000000, 0.000000000000000000, 1.192622389734054877E-16 ) ) ;
#385 = CYLINDRICAL_SURFACE ( 'NONE', #166, 3.970050153450812136 ) ;
#386 = FACE_OUTER_BOUND ( 'NONE', #169, .T. ) ;
#387 = ORIENTED_EDGE ( 'NONE', *, *, #170, .F. ) ;
#388 = EDGE_CURVE ( 'NONE', #487, #418, #155, .T. ) ;
#389 = FACE_BOUND ( 'NONE', #404, .T. ) ;
#390 = ORIENTED_EDGE ( 'NONE', *, *, #104, .T. ) ;
#391 = DIRECTION ( 'NONE',  ( -0.000000000000000000, 1.000000000000000000, -0.000000000000000000 ) ) ;
#392 = ORIENTED_EDGE ( 'NONE', *, *, #433, .T. ) ;
#393 = AXIS2_PLACEMENT_3D ( 'NONE', #223, #343, #292 ) ;
#394 = CARTESIAN_POINT ( 'NONE',  ( -119.9999999999999432, 0.000000000000000000, 7.000000000000017764 ) ) ;
#395 = EDGE_CURVE ( 'NONE', #143, #75, #182, .T. ) ;
#396 = VERTEX_POINT ( 'NONE', #112 ) ;
#397 =( NAMED_UNIT ( * ) SI_UNIT ( $, .STERADIAN. ) SOLID_ANGLE_UNIT ( ) );
#398 = DIRECTION ( 'NONE',  ( -1.192622389734054877E-16, -0.000000000000000000, -1.000000000000000000 ) ) ;
#399 = ORIENTED_EDGE ( 'NONE', *, *, #373, .T. ) ;
#400 = APPLICATION_PROTOCOL_DEFINITION ( 'draft international standard', 'automotive_design', 1998, #242 ) ;
#401 = VERTEX_POINT ( 'NONE', #483 ) ;
#402 = COLOUR_RGB ( '',0.7921568627450980005, 0.8196078431372548767, 0.9333333333333333481 ) ;
#403 = AXIS2_PLACEMENT_3D ( 'NONE', #252, #430, #204 ) ;
#404 = EDGE_LOOP ( 'NONE', ( #141, #219 ) ) ;
#405 = EDGE_CURVE ( 'NONE', #487, #143, #253, .T. ) ;
#406 = DIRECTION ( 'NONE',  ( 0.000000000000000000, 1.000000000000000000, 0.000000000000000000 ) ) ;
#407 = ORIENTED_EDGE ( 'NONE', *, *, #467, .F. ) ;
#408 = CARTESIAN_POINT ( 'NONE',  ( 0.000000000000000000, 3.000000000000000000, 0.000000000000000000 ) ) ;
#409 = EDGE_CURVE ( 'NONE', #210, #181, #129, .T. ) ;
#410 = CIRCLE ( 'NONE', #196, 3.970050153450812136 ) ;
#411 = ORIENTED_EDGE ( 'NONE', *, *, #373, .F. ) ;
#412 = CARTESIAN_POINT ( 'NONE',  ( -110.0000000000000426, 1.500000000000000000, 7.000000000000044409 ) ) ;
#413 = ORIENTED_EDGE ( 'NONE', *, *, #165, .T. ) ;
#414 = DIRECTION ( 'NONE',  ( -0.000000000000000000, 1.000000000000000000, -0.000000000000000000 ) ) ;
#415 = ORIENTED_EDGE ( 'NONE', *, *, #425, .F. ) ;
#416 = LINE ( 'NONE', #345, #222 ) ;
#417 = VECTOR ( 'NONE', #350, 1000.000000000000000 ) ;
#418 = VERTEX_POINT ( 'NONE', #51 ) ;
#419 = VECTOR ( 'NONE', #120, 1000.000000000000000 ) ;
#420 = DIRECTION ( 'NONE',  ( -0.000000000000000000, 1.000000000000000000, -0.000000000000000000 ) ) ;
#421 = AXIS2_PLACEMENT_3D ( 'NONE', #49, #55, #8 ) ;
#422 = FACE_OUTER_BOUND ( 'NONE', #212, .T. ) ;
#423 = DIRECTION ( 'NONE',  ( -1.192622389734054877E-16, 0.000000000000000000, -1.000000000000000000 ) ) ;
#424 = CARTESIAN_POINT ( 'NONE',  ( 120.0000000000000426, 3.000000000000000000, 6.999999999999987566 ) ) ;
#425 = EDGE_CURVE ( 'NONE', #181, #210, #207, .T. ) ;
#426 = VERTEX_POINT ( 'NONE', #267 ) ;
#427 = CIRCLE ( 'NONE', #43, 4.466306422632134954 ) ;
#428 = CARTESIAN_POINT ( 'NONE',  ( -110.0000000000000426, 1.500000000000000000, 7.000000000000044409 ) ) ;
#429 = ORIENTED_EDGE ( 'NONE', *, *, #84, .F. ) ;
#430 = DIRECTION ( 'NONE',  ( 0.000000000000000000, 0.000000000000000000, 1.000000000000000000 ) ) ;
#431 = CARTESIAN_POINT ( 'NONE',  ( -110.7500000000000426, 1.500000000000000000, 7.000000000000044409 ) ) ;
#432 = ORIENTED_EDGE ( 'NONE', *, *, #158, .T. ) ;
#433 = EDGE_CURVE ( 'NONE', #318, #325, #490, .T. ) ;
#434 = DIRECTION ( 'NONE',  ( -1.192622389734054877E-16, -0.000000000000000000, -1.000000000000000000 ) ) ;
#435 = ORIENTED_EDGE ( 'NONE', *, *, #307, .F. ) ;
#436 = AXIS2_PLACEMENT_3D ( 'NONE', #130, #232, #127 ) ;
#437 = AXIS2_PLACEMENT_3D ( 'NONE', #211, #258, #150 ) ;
#438 = CARTESIAN_POINT ( 'NONE',  ( 120.0000000000000426, 3.000000000000000000, -7.000000000000011546 ) ) ;
#439 = ORIENTED_EDGE ( 'NONE', *, *, #311, .F. ) ;
#440 = DIRECTION ( 'NONE',  ( -1.192622389734054877E-16, -0.000000000000000000, -1.000000000000000000 ) ) ;
#441 = LINE ( 'NONE', #320, #32 ) ;
#442 = PRODUCT_DEFINITION_SHAPE ( 'NONE', 'NONE',  #269 ) ;
#443 = CARTESIAN_POINT ( 'NONE',  ( -89.97777503361594142, 1.700000000000000178, 6.466306422632122519 ) ) ;
#444 = ORIENTED_EDGE ( 'NONE', *, *, #405, .T. ) ;
#445 = ADVANCED_FACE ( 'NONE', ( #461 ), #493, .T. ) ;
#446 = LINE ( 'NONE', #132, #123 ) ;
#447 = VECTOR ( 'NONE', #159, 1000.000000000000000 ) ;
#448 = CARTESIAN_POINT ( 'NONE',  ( -89.97777503361594142, 1.700000000000000178, -2.466306422632146944 ) ) ;
#449 = CIRCLE ( 'NONE', #193, 4.466306422632134954 ) ;
#450 = CARTESIAN_POINT ( 'NONE',  ( 89.97777503361594142, 1.700000000000000178, 1.999999999999988010 ) ) ;
#451 = DIRECTION ( 'NONE',  ( -1.000000000000000000, 0.000000000000000000, 0.000000000000000000 ) ) ;
#452 = EDGE_LOOP ( 'NONE', ( #364, #432 ) ) ;
#453 = EDGE_CURVE ( 'NONE', #325, #4, #446, .T. ) ;
#454 = FACE_OUTER_BOUND ( 'NONE', #485, .T. ) ;
#455 = DIRECTION ( 'NONE',  ( -1.000000000000000000, 0.000000000000000000, 0.000000000000000000 ) ) ;
#456 = AXIS2_PLACEMENT_3D ( 'NONE', #293, #114, #256 ) ;
#457 = DIRECTION ( 'NONE',  ( -1.000000000000000000, 0.000000000000000000, 0.000000000000000000 ) ) ;
#458 = VERTEX_POINT ( 'NONE', #306 ) ;
#459 = LINE ( 'NONE', #93, #124 ) ;
#460 = ORIENTED_EDGE ( 'NONE', *, *, #388, .T. ) ;
#461 = FACE_OUTER_BOUND ( 'NONE', #341, .T. ) ;
#462 = CARTESIAN_POINT ( 'NONE',  ( 120.0000000000000426, 3.000000000000000000, 6.999999999999987566 ) ) ;
#463 =( NAMED_UNIT ( * ) SI_UNIT ( $, .STERADIAN. ) SOLID_ANGLE_UNIT ( ) );
#464 = VECTOR ( 'NONE', #102, 1000.000000000000000 ) ;
#465 = LINE ( 'NONE', #462, #417 ) ;
#466 = DIRECTION ( 'NONE',  ( 0.000000000000000000, 0.000000000000000000, 1.000000000000000000 ) ) ;
#467 = EDGE_CURVE ( 'NONE', #401, #458, #459, .T. ) ;
#468 = CARTESIAN_POINT ( 'NONE',  ( 89.97777503361594142, 1.700000000000000178, 1.999999999999988010 ) ) ;
#469 = VERTEX_POINT ( 'NONE', #228 ) ;
#470 = CARTESIAN_POINT ( 'NONE',  ( -110.7500000000000426, 1.500000000000000000, -6.999999999999984013 ) ) ;
#471 = VERTEX_POINT ( 'NONE', #89 ) ;
#472 = DIRECTION ( 'NONE',  ( -1.000000000000000000, 0.000000000000000000, 0.000000000000000000 ) ) ;
#473 = EDGE_LOOP ( 'NONE', ( #203, #188 ) ) ;
#474 = PLANE ( 'NONE',  #305 ) ;
#475 = ORIENTED_EDGE ( 'NONE', *, *, #110, .T. ) ;
#476 = DIRECTION ( 'NONE',  ( -1.000000000000000000, 0.000000000000000000, 0.000000000000000000 ) ) ;
#477 = ORIENTED_EDGE ( 'NONE', *, *, #165, .F. ) ;
#478 = APPLICATION_PROTOCOL_DEFINITION ( 'draft international standard', 'automotive_design', 1998, #47 ) ;
#479 = AXIS2_PLACEMENT_3D ( 'NONE', #149, #302, #455 ) ;
#480 = AXIS2_PLACEMENT_3D ( 'NONE', #243, #279, #248 ) ;
#481 = LINE ( 'NONE', #295, #189 ) ;
#482 = PLANE ( 'NONE',  #71 ) ;
#483 = CARTESIAN_POINT ( 'NONE',  ( 89.97777503361594142, 1.700000000000000178, 5.970050153450800146 ) ) ;
#484 = ADVANCED_FACE ( 'NONE', ( #314 ), #349, .F. ) ;
#485 = EDGE_LOOP ( 'NONE', ( #80, #251, #54, #399 ) ) ;
#486 = DIRECTION ( 'NONE',  ( 1.000000000000000000, 0.000000000000000000, -1.228762462150238523E-16 ) ) ;
#487 = VERTEX_POINT ( 'NONE', #163 ) ;
#488 = VECTOR ( 'NONE', #270, 1000.000000000000000 ) ;
#489 = DIRECTION ( 'NONE',  ( 1.228762462150238523E-16, -0.000000000000000000, 1.000000000000000000 ) ) ;
#490 = CIRCLE ( 'NONE', #224, 4.466306422632134954 ) ;
#491 = ORIENTED_EDGE ( 'NONE', *, *, #307, .T. ) ;
#492 = EDGE_CURVE ( 'NONE', #471, #458, #53, .T. ) ;
#493 = PLANE ( 'NONE',  #393 ) ;
#494 = CARTESIAN_POINT ( 'NONE',  ( 109.2500000000000426, 1.500000000000000000, 7.000000000000018652 ) ) ;
#495 = ORIENTED_EDGE ( 'NONE', *, *, #68, .F. ) ;
ENDSEC;
END-ISO-10303-21;
